<svg xmlns="http://www.w3.org/2000/svg" xmlns:xlink="http://www.w3.org/1999/xlink" width="500" zoomAndPan="magnify" viewBox="0 0 375 374.999991" height="500" preserveAspectRatio="xMidYMid meet" version="1.0"><defs><g/></defs><g fill="#ff3434" fill-opacity="1"><g transform="translate(33.016401, 186.037399)"><g><path d="M 23.753906 -40.339844 C 23.511719 -40.945312 23.023438 -41.308594 22.355469 -41.308594 L 16.707031 -41.308594 C 16.039062 -41.308594 15.550781 -40.945312 15.308594 -40.339844 L -0.363281 1.214844 C 6.5625 0 11.816406 -4.039062 14.730469 -13.457031 C 16.097656 -10.386719 19.320312 -8.324219 24.238281 -8.324219 L 26.457031 -8.324219 L 28.855469 -0.972656 C 29.097656 -0.242188 29.523438 0 30.191406 0 L 37.421875 0 C 38.089844 0 38.515625 -0.363281 38.515625 -0.910156 C 38.515625 -1.03125 38.453125 -1.214844 38.394531 -1.398438 Z M 19.5625 -29.28125 L 23.996094 -15.796875 L 15.460938 -15.796875 Z M 19.5625 -29.28125 "/></g></g></g><g fill="#ff3434" fill-opacity="1"><g transform="translate(71.774825, 186.037399)"><g><path d="M 17.738281 0.609375 C 24.96875 0.609375 33.65625 -2.492188 33.65625 -12.636719 C 33.65625 -21.503906 27.09375 -23.511719 21.082031 -24.847656 C 16.339844 -25.878906 12.027344 -26.367188 12.027344 -30.3125 C 12.027344 -33.109375 14.15625 -34.507812 17.375 -34.507812 C 20.410156 -34.507812 22.78125 -33.289062 23.449219 -29.890625 C 23.570312 -29.097656 23.996094 -28.734375 24.726562 -28.734375 L 31.285156 -28.734375 C 32.074219 -28.734375 32.5 -29.160156 32.441406 -30.011719 C 31.773438 -38.453125 24.480469 -41.917969 17.558594 -41.917969 C 10.328125 -41.917969 2.914062 -38.03125 2.914062 -29.039062 C 2.914062 -21.503906 8.140625 -19.320312 13.0625 -17.980469 C 18.710938 -16.464844 24.542969 -16.21875 24.542969 -11.300781 C 24.542969 -7.898438 21.6875 -6.804688 18.648438 -6.804688 C 14.703125 -6.804688 11.726562 -8.6875 11.179688 -12.453125 C 11.117188 -13.183594 10.691406 -13.609375 9.964844 -13.609375 L 2.855469 -13.609375 C 2.066406 -13.609375 1.640625 -13.183594 1.640625 -12.394531 C 2.125 -3.160156 9.78125 0.609375 17.738281 0.609375 Z M 17.738281 0.609375 "/></g></g></g><g fill="#ff3434" fill-opacity="1"><g transform="translate(107.313511, 186.037399)"><g><path d="M 29.097656 -25.453125 L 12.453125 -25.453125 L 12.453125 -40.09375 C 12.453125 -40.882812 12.027344 -41.308594 11.238281 -41.308594 L 4.554688 -41.308594 C 3.765625 -41.308594 3.339844 -40.882812 3.339844 -40.09375 L 3.339844 1.214844 C 8.625 0 12.453125 -4.496094 12.453125 -12.089844 L 12.453125 -23.054688 C 13.910156 -19.5625 17.679688 -17.191406 23.390625 -17.191406 L 29.097656 -17.191406 L 29.097656 -1.214844 C 29.097656 -0.425781 29.523438 0 30.3125 0 L 36.996094 0 C 37.785156 0 38.210938 -0.425781 38.210938 -1.214844 L 38.210938 -42.523438 C 32.925781 -41.308594 29.097656 -36.816406 29.097656 -29.222656 Z M 29.097656 -25.453125 "/></g></g></g><g fill="#ff3434" fill-opacity="1"><g transform="translate(148.927179, 186.037399)"><g><path d="M 19.015625 0.609375 C 29.28125 0.609375 35.296875 -5.101562 35.296875 -16.585938 L 35.296875 -41.308594 C 30.011719 -40.703125 26.183594 -36.207031 26.183594 -28.613281 L 26.183594 -16.585938 C 26.183594 -10.875 24.605469 -7.65625 19.015625 -7.65625 C 13.546875 -7.65625 11.96875 -10.875 11.96875 -16.585938 L 11.96875 -40.09375 C 11.96875 -40.882812 11.542969 -41.308594 10.753906 -41.308594 L 4.070312 -41.308594 C 3.28125 -41.308594 2.855469 -40.882812 2.855469 -40.09375 L 2.855469 -16.097656 C 2.855469 -5.101562 8.871094 0.609375 19.015625 0.609375 Z M 19.015625 0.609375 "/></g></g></g><g fill="#ff3434" fill-opacity="1"><g transform="translate(187.078105, 186.037399)"><g><path d="M 1.457031 -41.308594 C 0.667969 -41.308594 0.242188 -40.882812 0.242188 -40.09375 L 0.242188 -34.261719 C 0.242188 -33.472656 0.667969 -33.046875 1.457031 -33.046875 L 17.496094 -33.046875 C 13.851562 -31.5 11.421875 -27.125 11.421875 -21.566406 L 11.421875 -1.214844 C 11.421875 -0.425781 11.847656 0 12.636719 0 L 19.320312 0 C 20.109375 0 20.535156 -0.425781 20.535156 -1.214844 L 20.535156 -33.046875 L 30.496094 -33.046875 C 31.285156 -33.046875 31.710938 -33.472656 31.710938 -34.261719 L 31.710938 -40.09375 C 31.710938 -40.882812 31.285156 -41.308594 30.496094 -41.308594 Z M 1.457031 -41.308594 "/></g></g></g><g fill="#ff3434" fill-opacity="1"><g transform="translate(219.093293, 186.037399)"><g><path d="M 22.84375 0.609375 C 35.597656 0.609375 44.105469 -7.65625 44.105469 -20.714844 C 44.105469 -33.65625 35.84375 -41.917969 22.902344 -41.917969 C 10.144531 -41.917969 1.640625 -33.835938 1.640625 -20.777344 C 1.640625 -7.898438 9.902344 0.609375 22.84375 0.609375 Z M 22.84375 -7.65625 C 16.160156 -7.65625 10.753906 -12.515625 10.753906 -20.777344 C 10.753906 -28.976562 16.160156 -33.65625 22.84375 -33.65625 C 29.644531 -33.65625 34.992188 -28.917969 34.992188 -20.777344 C 34.992188 -12.515625 29.644531 -7.65625 22.84375 -7.65625 Z M 22.84375 -7.65625 "/></g></g></g><g fill="#ff3434" fill-opacity="1"><g transform="translate(264.837957, 186.037399)"><g><path d="M 17.738281 0.609375 C 24.96875 0.609375 33.65625 -2.492188 33.65625 -12.636719 C 33.65625 -21.503906 27.09375 -23.511719 21.082031 -24.847656 C 16.339844 -25.878906 12.027344 -26.367188 12.027344 -30.3125 C 12.027344 -33.109375 14.15625 -34.507812 17.375 -34.507812 C 20.410156 -34.507812 22.78125 -33.289062 23.449219 -29.890625 C 23.570312 -29.097656 23.996094 -28.734375 24.726562 -28.734375 L 31.285156 -28.734375 C 32.074219 -28.734375 32.5 -29.160156 32.441406 -30.011719 C 31.773438 -38.453125 24.480469 -41.917969 17.558594 -41.917969 C 10.328125 -41.917969 2.914062 -38.03125 2.914062 -29.039062 C 2.914062 -21.503906 8.140625 -19.320312 13.0625 -17.980469 C 18.710938 -16.464844 24.542969 -16.21875 24.542969 -11.300781 C 24.542969 -7.898438 21.6875 -6.804688 18.648438 -6.804688 C 14.703125 -6.804688 11.726562 -8.6875 11.179688 -12.453125 C 11.117188 -13.183594 10.691406 -13.609375 9.964844 -13.609375 L 2.855469 -13.609375 C 2.066406 -13.609375 1.640625 -13.183594 1.640625 -12.394531 C 2.125 -3.160156 9.78125 0.609375 17.738281 0.609375 Z M 17.738281 0.609375 "/></g></g></g><g fill="#ff3434" fill-opacity="1"><g transform="translate(300.376643, 186.037399)"><g><path d="M 29.097656 -25.453125 L 12.453125 -25.453125 L 12.453125 -40.09375 C 12.453125 -40.882812 12.027344 -41.308594 11.238281 -41.308594 L 4.554688 -41.308594 C 3.765625 -41.308594 3.339844 -40.882812 3.339844 -40.09375 L 3.339844 1.214844 C 8.625 0 12.453125 -4.496094 12.453125 -12.089844 L 12.453125 -23.054688 C 13.910156 -19.5625 17.679688 -17.191406 23.390625 -17.191406 L 29.097656 -17.191406 L 29.097656 -1.214844 C 29.097656 -0.425781 29.523438 0 30.3125 0 L 36.996094 0 C 37.785156 0 38.210938 -0.425781 38.210938 -1.214844 L 38.210938 -42.523438 C 32.925781 -41.308594 29.097656 -36.816406 29.097656 -29.222656 Z M 29.097656 -25.453125 "/></g></g></g><g fill="#d9d9d9" fill-opacity="1"><g transform="translate(41.212487, 214.054484)"><g><path d="M 15.859375 0 L 14.0625 0 L 10.890625 -10.515625 C 10.742188 -10.984375 10.578125 -11.570312 10.390625 -12.28125 C 10.203125 -12.988281 10.101562 -13.414062 10.09375 -13.5625 C 9.9375 -12.613281 9.6875 -11.578125 9.34375 -10.453125 L 6.28125 0 L 4.46875 0 L 0.296875 -15.703125 L 2.21875 -15.703125 L 4.703125 -6 C 5.046875 -4.644531 5.296875 -3.414062 5.453125 -2.3125 C 5.648438 -3.625 5.9375 -4.90625 6.3125 -6.15625 L 9.125 -15.703125 L 11.0625 -15.703125 L 14.015625 -6.0625 C 14.359375 -4.957031 14.648438 -3.707031 14.890625 -2.3125 C 15.023438 -3.320312 15.28125 -4.5625 15.65625 -6.03125 L 18.140625 -15.703125 L 20.0625 -15.703125 Z M 15.859375 0 "/></g></g></g><g fill="#d9d9d9" fill-opacity="1"><g transform="translate(71.476046, 214.054484)"><g><path d="M 10.921875 0 L 2.15625 0 L 2.15625 -15.703125 L 10.921875 -15.703125 L 10.921875 -14.078125 L 3.984375 -14.078125 L 3.984375 -9.03125 L 10.5 -9.03125 L 10.5 -7.40625 L 3.984375 -7.40625 L 3.984375 -1.640625 L 10.921875 -1.640625 Z M 10.921875 0 "/></g></g></g><g fill="#d9d9d9" fill-opacity="1"><g transform="translate(93.609219, 214.054484)"><g><path d="M 2.15625 -15.703125 L 6.59375 -15.703125 C 8.675781 -15.703125 10.179688 -15.390625 11.109375 -14.765625 C 12.046875 -14.148438 12.515625 -13.164062 12.515625 -11.8125 C 12.515625 -10.882812 12.253906 -10.117188 11.734375 -9.515625 C 11.210938 -8.910156 10.457031 -8.519531 9.46875 -8.34375 L 9.46875 -8.234375 C 11.851562 -7.816406 13.046875 -6.5625 13.046875 -4.46875 C 13.046875 -3.0625 12.566406 -1.960938 11.609375 -1.171875 C 10.660156 -0.390625 9.335938 0 7.640625 0 L 2.15625 0 Z M 3.984375 -8.984375 L 7 -8.984375 C 8.28125 -8.984375 9.203125 -9.179688 9.765625 -9.578125 C 10.335938 -9.984375 10.625 -10.671875 10.625 -11.640625 C 10.625 -12.515625 10.304688 -13.144531 9.671875 -13.53125 C 9.046875 -13.925781 8.046875 -14.125 6.671875 -14.125 L 3.984375 -14.125 Z M 3.984375 -7.4375 L 3.984375 -1.5625 L 7.265625 -1.5625 C 8.523438 -1.5625 9.476562 -1.804688 10.125 -2.296875 C 10.769531 -2.785156 11.09375 -3.550781 11.09375 -4.59375 C 11.09375 -5.570312 10.765625 -6.289062 10.109375 -6.75 C 9.453125 -7.207031 8.453125 -7.4375 7.109375 -7.4375 Z M 3.984375 -7.4375 "/></g></g></g><g fill="#d9d9d9" fill-opacity="1"><g transform="translate(117.761567, 214.054484)"><g/></g></g><g fill="#d9d9d9" fill-opacity="1"><g transform="translate(133.375381, 214.054484)"><g><path d="M 14.703125 -8 C 14.703125 -5.40625 13.992188 -3.421875 12.578125 -2.046875 C 11.171875 -0.679688 9.148438 0 6.515625 0 L 2.15625 0 L 2.15625 -15.703125 L 6.96875 -15.703125 C 9.414062 -15.703125 11.316406 -15.023438 12.671875 -13.671875 C 14.023438 -12.316406 14.703125 -10.425781 14.703125 -8 Z M 12.765625 -7.9375 C 12.765625 -9.988281 12.25 -11.53125 11.21875 -12.5625 C 10.1875 -13.601562 8.660156 -14.125 6.640625 -14.125 L 3.984375 -14.125 L 3.984375 -1.578125 L 6.203125 -1.578125 C 8.378906 -1.578125 10.015625 -2.113281 11.109375 -3.1875 C 12.210938 -4.257812 12.765625 -5.84375 12.765625 -7.9375 Z M 12.765625 -7.9375 "/></g></g></g><g fill="#d9d9d9" fill-opacity="1"><g transform="translate(159.310609, 214.054484)"><g><path d="M 10.921875 0 L 2.15625 0 L 2.15625 -15.703125 L 10.921875 -15.703125 L 10.921875 -14.078125 L 3.984375 -14.078125 L 3.984375 -9.03125 L 10.5 -9.03125 L 10.5 -7.40625 L 3.984375 -7.40625 L 3.984375 -1.640625 L 10.921875 -1.640625 Z M 10.921875 0 "/></g></g></g><g fill="#d9d9d9" fill-opacity="1"><g transform="translate(181.443779, 214.054484)"><g><path d="M 11.125 -15.703125 L 13.09375 -15.703125 L 7.4375 0 L 5.625 0 L 0 -15.703125 L 1.9375 -15.703125 L 5.546875 -5.546875 C 5.960938 -4.378906 6.289062 -3.242188 6.53125 -2.140625 C 6.789062 -3.296875 7.128906 -4.453125 7.546875 -5.609375 Z M 11.125 -15.703125 "/></g></g></g><g fill="#d9d9d9" fill-opacity="1"><g transform="translate(204.436171, 214.054484)"><g><path d="M 10.921875 0 L 2.15625 0 L 2.15625 -15.703125 L 10.921875 -15.703125 L 10.921875 -14.078125 L 3.984375 -14.078125 L 3.984375 -9.03125 L 10.5 -9.03125 L 10.5 -7.40625 L 3.984375 -7.40625 L 3.984375 -1.640625 L 10.921875 -1.640625 Z M 10.921875 0 "/></g></g></g><g fill="#d9d9d9" fill-opacity="1"><g transform="translate(226.569341, 214.054484)"><g><path d="M 2.15625 0 L 2.15625 -15.703125 L 3.984375 -15.703125 L 3.984375 -1.65625 L 10.921875 -1.65625 L 10.921875 0 Z M 2.15625 0 "/></g></g></g><g fill="#d9d9d9" fill-opacity="1"><g transform="translate(247.886249, 214.054484)"><g><path d="M 15.796875 -7.875 C 15.796875 -5.363281 15.160156 -3.382812 13.890625 -1.9375 C 12.617188 -0.5 10.847656 0.21875 8.578125 0.21875 C 6.265625 0.21875 4.476562 -0.488281 3.21875 -1.90625 C 1.96875 -3.320312 1.34375 -5.316406 1.34375 -7.890625 C 1.34375 -10.453125 1.972656 -12.4375 3.234375 -13.84375 C 4.492188 -15.25 6.285156 -15.953125 8.609375 -15.953125 C 10.859375 -15.953125 12.617188 -15.234375 13.890625 -13.796875 C 15.160156 -12.367188 15.796875 -10.394531 15.796875 -7.875 Z M 3.28125 -7.875 C 3.28125 -5.75 3.734375 -4.132812 4.640625 -3.03125 C 5.546875 -1.9375 6.859375 -1.390625 8.578125 -1.390625 C 10.316406 -1.390625 11.628906 -1.9375 12.515625 -3.03125 C 13.410156 -4.125 13.859375 -5.738281 13.859375 -7.875 C 13.859375 -9.988281 13.414062 -11.585938 12.53125 -12.671875 C 11.644531 -13.765625 10.335938 -14.3125 8.609375 -14.3125 C 6.867188 -14.3125 5.546875 -13.757812 4.640625 -12.65625 C 3.734375 -11.5625 3.28125 -9.96875 3.28125 -7.875 Z M 3.28125 -7.875 "/></g></g></g><g fill="#d9d9d9" fill-opacity="1"><g transform="translate(274.916986, 214.054484)"><g><path d="M 12.125 -11.125 C 12.125 -9.539062 11.578125 -8.316406 10.484375 -7.453125 C 9.398438 -6.597656 7.847656 -6.171875 5.828125 -6.171875 L 3.984375 -6.171875 L 3.984375 0 L 2.15625 0 L 2.15625 -15.703125 L 6.234375 -15.703125 C 10.160156 -15.703125 12.125 -14.175781 12.125 -11.125 Z M 3.984375 -7.75 L 5.625 -7.75 C 7.25 -7.75 8.421875 -8.007812 9.140625 -8.53125 C 9.867188 -9.050781 10.234375 -9.890625 10.234375 -11.046875 C 10.234375 -12.078125 9.890625 -12.847656 9.203125 -13.359375 C 8.523438 -13.867188 7.46875 -14.125 6.03125 -14.125 L 3.984375 -14.125 Z M 3.984375 -7.75 "/></g></g></g><g fill="#d9d9d9" fill-opacity="1"><g transform="translate(298.059753, 214.054484)"><g><path d="M 10.921875 0 L 2.15625 0 L 2.15625 -15.703125 L 10.921875 -15.703125 L 10.921875 -14.078125 L 3.984375 -14.078125 L 3.984375 -9.03125 L 10.5 -9.03125 L 10.5 -7.40625 L 3.984375 -7.40625 L 3.984375 -1.640625 L 10.921875 -1.640625 Z M 10.921875 0 "/></g></g></g><g fill="#d9d9d9" fill-opacity="1"><g transform="translate(320.192923, 214.054484)"><g><path d="M 3.984375 -6.53125 L 3.984375 0 L 2.15625 0 L 2.15625 -15.703125 L 6.46875 -15.703125 C 8.394531 -15.703125 9.816406 -15.332031 10.734375 -14.59375 C 11.660156 -13.863281 12.125 -12.753906 12.125 -11.265625 C 12.125 -9.191406 11.066406 -7.789062 8.953125 -7.0625 L 13.21875 0 L 11.0625 0 L 7.265625 -6.53125 Z M 3.984375 -8.09375 L 6.484375 -8.09375 C 7.773438 -8.09375 8.722656 -8.347656 9.328125 -8.859375 C 9.929688 -9.378906 10.234375 -10.148438 10.234375 -11.171875 C 10.234375 -12.210938 9.925781 -12.960938 9.3125 -13.421875 C 8.695312 -13.878906 7.710938 -14.109375 6.359375 -14.109375 L 3.984375 -14.109375 Z M 3.984375 -8.09375 "/></g></g></g></svg>